<?xml version="1.0" standalone="no"?>
<!DOCTYPE svg PUBLIC "-//W3C//DTD SVG 20010904//EN"
 "http://www.w3.org/TR/2001/REC-SVG-20010904/DTD/svg10.dtd">
<svg version="1.0" xmlns="http://www.w3.org/2000/svg"
 width="200.000000pt" height="200.000000pt" viewBox="0 0 200.000000 200.000000"
 preserveAspectRatio="xMidYMid meet">
<metadata>
Created by potrace 1.14, written by Peter Selinger 2001-2017
</metadata>
<g transform="translate(0.000000,200.000000) scale(0.100000,-0.100000)"
fill="#000000" stroke="none">
<path d="M878 1981 c-220 -71 -422 -306 -588 -686 -17 -38 -35 -78 -40 -87 -6
-10 -10 -22 -10 -27 0 -5 -5 -22 -12 -38 -6 -15 -12 -30 -13 -33 -1 -3 -4 -12
-7 -20 -53 -140 -138 -466 -163 -620 -3 -19 -10 -60 -15 -90 -14 -79 -18 -114
-26 -217 -10 -135 6 -162 92 -163 47 0 72 27 90 95 49 193 210 397 398 504 56
32 174 80 216 87 14 3 39 8 55 13 79 20 336 7 386 -20 9 -4 27 -10 40 -12 28
-6 129 -53 174 -82 140 -90 256 -225 323 -376 25 -55 33 -81 48 -157 10 -51
111 -70 153 -30 23 21 24 25 17 137 -7 117 -9 141 -21 208 -3 21 -8 52 -10 68
-2 17 -10 64 -19 105 -8 41 -17 86 -20 100 -2 14 -12 54 -21 90 -9 36 -18 72
-20 80 -2 8 -9 35 -16 60 -7 25 -13 47 -14 50 -1 3 -8 25 -15 50 -7 25 -14 47
-14 50 -1 3 -6 19 -12 35 -7 17 -24 64 -39 105 -155 426 -377 724 -604 811
-78 30 -215 35 -293 10z m224 -462 c248 -53 461 -330 604 -786 l33 -107 -71
70 c-40 38 -77 74 -82 80 -29 29 -106 80 -181 120 -187 98 -425 121 -645 60
-139 -38 -292 -135 -422 -267 -38 -37 -68 -64 -68 -58 0 28 89 269 135 366
188 397 431 578 697 522z"/>
</g>
</svg>
